<svg width="20" height="17" viewBox="0 0 20 17" fill="none" xmlns="http://www.w3.org/2000/svg">
<path d="M17.7833 4.5239L17.7953 5.03049C17.7953 10.2036 13.8382 16.1635 6.60125 16.1635C4.38005 16.1635 2.3126 15.5159 0.570801 14.4053C0.878447 14.4411 1.19201 14.4609 1.50964 14.4609C3.35335 14.4609 5.04922 13.8351 6.39552 12.7862C4.6737 12.7544 3.22148 11.622 2.72012 10.0685C2.9618 10.1142 3.20551 10.1361 3.46118 10.1361C3.82074 10.1361 4.16827 10.0904 4.49786 10.001C2.69811 9.63945 1.34182 8.06013 1.34182 6.16491V6.11524C1.87314 6.40925 2.47838 6.58406 3.12357 6.60596C2.06889 5.90468 1.37376 4.70675 1.37376 3.34988C1.37376 2.63272 1.56753 1.96125 1.90508 1.38316C3.84466 3.75119 6.74502 5.30869 10.0149 5.47161C9.94699 5.1855 9.91309 4.88554 9.91309 4.57964C9.91309 2.42021 11.6749 0.667969 13.8482 0.667969C14.9787 0.667969 16.0015 1.14274 16.7205 1.90361C17.6154 1.72677 18.4584 1.401 19.2194 0.954007C18.9258 1.86786 18.3026 2.63469 17.4896 3.11939C18.2826 3.026 19.0437 2.81342 19.7488 2.50353C19.2215 3.28623 18.5523 3.97561 17.7833 4.5239Z" fill="#D0DAF5"/>
</svg>
