<svg width="21" height="21" viewBox="0 0 21 21" fill="none" xmlns="http://www.w3.org/2000/svg">
<path fill-rule="evenodd" clip-rule="evenodd" d="M6.62545 0.530376C7.69211 0.482306 8.03295 0.470703 10.7488 0.470703C13.4646 0.470703 13.8054 0.482306 14.8721 0.530376C16.4971 0.604138 17.9246 1.0003 19.0704 2.13989C20.2163 3.27948 20.6146 4.69919 20.6888 6.31534C20.7371 7.37619 20.7488 7.71516 20.7488 10.4162C20.7488 13.1172 20.7371 13.4562 20.6888 14.5171C20.6146 16.1332 20.2163 17.5529 19.0704 18.6925C17.9246 19.8321 16.4971 20.2283 14.8721 20.302C13.8054 20.3501 13.4646 20.3617 10.7488 20.3617C8.03295 20.3617 7.69211 20.3501 6.62545 20.302C5.00045 20.2283 3.57295 19.8321 2.42711 18.6925C1.28128 17.5529 0.882946 16.1332 0.808779 14.5171C0.760446 13.4562 0.748779 13.1172 0.748779 10.4162C0.748779 7.71516 0.760446 7.37619 0.808779 6.31534C0.882946 4.69919 1.28128 3.27948 2.42711 2.13989C3.57295 1.0003 5.00045 0.604138 6.62545 0.530376ZM14.7887 2.32071C13.7346 2.27264 13.4179 2.2627 10.7479 2.2627C8.07789 2.2627 7.76123 2.27264 6.70706 2.32071C5.56873 2.3721 4.51289 2.59918 3.70039 3.40726C2.88789 4.21533 2.65956 5.26541 2.60789 6.39753C2.55956 7.44595 2.54956 7.7609 2.54956 10.4163C2.54956 13.0718 2.55956 13.3867 2.60789 14.4351C2.65956 15.5673 2.88789 16.6174 3.70039 17.4254C4.51289 18.2335 5.56873 18.4606 6.70706 18.512C7.76123 18.56 8.07789 18.57 10.7479 18.57C13.4179 18.57 13.7346 18.56 14.7887 18.512C15.9271 18.4606 16.9829 18.2335 17.7954 17.4254C18.6079 16.6174 18.8362 15.5673 18.8879 14.4351C18.9362 13.3867 18.9462 13.0718 18.9462 10.4163C18.9462 7.7609 18.9362 7.44595 18.8879 6.39753C18.8362 5.26541 18.6079 4.21533 17.7954 3.40726C16.9829 2.59918 15.9271 2.3721 14.7887 2.32071ZM5.61206 10.4156C5.61206 7.59523 7.91122 5.30859 10.7471 5.30859C13.5829 5.30859 15.882 7.59523 15.882 10.4156C15.882 13.236 13.5829 15.5226 10.7471 15.5226C7.91122 15.5226 5.61206 13.236 5.61206 10.4156ZM7.41284 10.4157C7.41284 12.2465 8.90534 13.7309 10.7462 13.7309C12.587 13.7309 14.0795 12.2465 14.0795 10.4157C14.0795 8.58495 12.587 7.10059 10.7462 7.10059C8.90534 7.10059 7.41284 8.58495 7.41284 10.4157ZM17.2855 5.10752C17.2855 5.76665 16.7482 6.30098 16.0855 6.30098C15.4228 6.30098 14.8855 5.76665 14.8855 5.10752C14.8855 4.44839 15.4228 3.91406 16.0855 3.91406C16.7482 3.91406 17.2855 4.44839 17.2855 5.10752Z" fill="#D0DAF5"/>
</svg>
