<svg width="17" height="16" viewBox="0 0 17 16" fill="none" xmlns="http://www.w3.org/2000/svg">
<g id="icon/add">
<path id="Vector" d="M15.3571 9.14286H9.64286V14.8571C9.64286 15.4857 9.12857 16 8.5 16C7.87143 16 7.35714 15.4857 7.35714 14.8571V9.14286H1.64286C1.01429 9.14286 0.5 8.62857 0.5 8C0.5 7.37143 1.01429 6.85714 1.64286 6.85714H7.35714V1.14286C7.35714 0.514286 7.87143 0 8.5 0C9.12857 0 9.64286 0.514286 9.64286 1.14286V6.85714H15.3571C15.9857 6.85714 16.5 7.37143 16.5 8C16.5 8.62857 15.9857 9.14286 15.3571 9.14286Z" fill="#484848"/>
</g>
</svg>
