<svg width="45" height="48" viewBox="0 0 45 48" fill="none" xmlns="http://www.w3.org/2000/svg">
<path d="M22.5 21C20.5109 21 18.6032 20.2098 17.1967 18.8033C15.7902 17.3968 15 15.4891 15 13.5C15 11.5109 15.7902 9.60322 17.1967 8.1967C18.6032 6.79018 20.5109 6 22.5 6C24.4891 6 26.3968 6.79018 27.8033 8.1967C29.2098 9.60322 30 11.5109 30 13.5C30 15.4891 29.2098 17.3968 27.8033 18.8033C26.3968 20.2098 24.4891 21 22.5 21ZM22.5 9C20.01 9 18 11.01 18 13.5C18 15.99 20.01 18 22.5 18C24.99 18 27 15.99 27 13.5C27 11.01 24.99 9 22.5 9Z" fill="#F1487F"/>
<path d="M40.5 33C39.66 33 39 32.34 39 31.5C39 30.66 39.66 30 40.5 30C41.34 30 42 29.34 42 28.5C42 26.5109 41.2098 24.6032 39.8033 23.1967C38.3968 21.7902 36.4891 21 34.5 21H31.5C30.66 21 30 20.34 30 19.5C30 18.66 30.66 18 31.5 18C33.99 18 36 15.99 36 13.5C36 11.01 33.99 9 31.5 9C30.66 9 30 8.34 30 7.5C30 6.66 30.66 6 31.5 6C33.4891 6 35.3968 6.79018 36.8033 8.1967C38.2098 9.60322 39 11.5109 39 13.5C39 15.36 38.34 17.04 37.2 18.36C41.67 19.56 45 23.64 45 28.5C45 30.99 42.99 33 40.5 33ZM4.5 33C2.01 33 0 30.99 0 28.5C0 23.64 3.3 19.56 7.8 18.36C6.69 17.04 6 15.36 6 13.5C6 11.5109 6.79018 9.60322 8.1967 8.1967C9.60322 6.79018 11.5109 6 13.5 6C14.34 6 15 6.66 15 7.5C15 8.34 14.34 9 13.5 9C11.01 9 9 11.01 9 13.5C9 15.99 11.01 18 13.5 18C14.34 18 15 18.66 15 19.5C15 20.34 14.34 21 13.5 21H10.5C8.51088 21 6.60322 21.7902 5.1967 23.1967C3.79018 24.6032 3 26.5109 3 28.5C3 29.34 3.66 30 4.5 30C5.34 30 6 30.66 6 31.5C6 32.34 5.34 33 4.5 33ZM31.5 42H13.5C11.01 42 9 39.99 9 37.5V34.5C9 28.71 13.71 24 19.5 24H25.5C31.29 24 36 28.71 36 34.5V37.5C36 39.99 33.99 42 31.5 42ZM19.5 27C17.5109 27 15.6032 27.7902 14.1967 29.1967C12.7902 30.6032 12 32.5109 12 34.5V37.5C12 38.34 12.66 39 13.5 39H31.5C32.34 39 33 38.34 33 37.5V34.5C33 32.5109 32.2098 30.6032 30.8033 29.1967C29.3968 27.7902 27.4891 27 25.5 27H19.5Z" fill="#F1487F"/>
</svg>
