<svg width="28" height="28" viewBox="0 0 28 28" fill="none" xmlns="http://www.w3.org/2000/svg">
<path d="M19.6814 4.71231L11.4224 3.29335C7.83495 2.67701 5.32885 4.44824 4.71251 8.03567L3.29525 16.2848C2.67721 19.8821 4.44844 22.3882 8.03587 23.0046L16.285 24.4218C19.8725 25.0382 22.3786 23.2669 22.9949 19.6795L24.4139 11.4205C25.0401 7.83475 23.2688 5.32865 19.6814 4.71231ZM11.3608 7.72694C12.3759 7.90135 13.0714 8.87315 12.8953 9.89813C12.7192 10.9231 11.7491 11.6087 10.7241 11.4326C9.69913 11.2565 9.01688 10.2667 9.19129 9.25161C9.3657 8.23648 10.3457 7.55254 11.3608 7.72694ZM12.6598 20.8362C10.0086 20.3807 8.22109 17.8515 8.67658 15.2004C8.79511 14.5105 9.45509 14.0354 10.145 14.1539L17.241 15.373C17.9309 15.4916 18.3962 16.1498 18.2759 16.8496C17.8402 19.5041 15.311 21.2917 12.6598 20.8362ZM17.6264 12.5982C16.6113 12.4238 15.9158 11.452 16.0919 10.427C16.268 9.40205 17.2381 8.71641 18.2631 8.89251C19.2881 9.06861 19.9737 10.0387 19.7976 11.0637C19.6215 12.0887 18.6416 12.7726 17.6264 12.5982Z" fill="white"/>
</svg>
