<svg width="27" height="27" viewBox="0 0 27 27" fill="none" xmlns="http://www.w3.org/2000/svg">
<path d="M23.6249 15.1875H18.5624C18.115 15.1879 17.6861 15.3659 17.3697 15.6822C17.0533 15.9986 16.8754 16.4276 16.8749 16.875V18.5625H12.1618L8.43744 14.8382V10.125H10.1249C10.5724 10.1246 11.0013 9.94662 11.3177 9.63025C11.6341 9.31388 11.812 8.88492 11.8124 8.4375V3.375C11.812 2.92758 11.6341 2.49862 11.3177 2.18225C11.0013 1.86588 10.5724 1.68795 10.1249 1.6875H5.06244C4.61503 1.68795 4.18606 1.86588 3.86969 2.18225C3.55332 2.49862 3.37539 2.92758 3.37494 3.375V8.4375C3.37539 8.88492 3.55332 9.31388 3.86969 9.63025C4.18606 9.94662 4.61503 10.1246 5.06244 10.125H6.74994V14.8382L2.77841 18.8097C2.62023 18.9679 2.53137 19.1825 2.53137 19.4062C2.53137 19.63 2.62023 19.8446 2.77841 20.0028L6.99716 24.2215C7.15539 24.3797 7.36996 24.4686 7.59369 24.4686C7.81742 24.4686 8.032 24.3797 8.19022 24.2215L12.1618 20.25H16.8749V21.9375C16.8754 22.3849 17.0533 22.8139 17.3697 23.1302C17.6861 23.4466 18.115 23.6246 18.5624 23.625H23.6249C24.0724 23.6246 24.5013 23.4466 24.8177 23.1302C25.1341 22.8139 25.312 22.3849 25.3124 21.9375V16.875C25.312 16.4276 25.1341 15.9986 24.8177 15.6822C24.5013 15.3659 24.0724 15.1879 23.6249 15.1875ZM5.06244 3.375H10.1249V8.4375H5.06244V3.375ZM7.59369 22.4319L4.568 19.4062L7.59369 16.3806L10.6194 19.4062L7.59369 22.4319ZM18.5624 21.9375V16.875H23.6249V21.9375H18.5624Z" fill="white"/>
</svg>
