<svg width="23" height="23" viewBox="0 0 23 23" fill="none" xmlns="http://www.w3.org/2000/svg">
<path d="M20.5449 11.1761L11.7378 19.9832C10.6589 21.0622 9.19554 21.6683 7.6697 21.6683C6.14386 21.6683 4.68051 21.0622 3.60158 19.9832C2.52264 18.9043 1.9165 17.4409 1.9165 15.9151C1.9165 14.3893 2.52264 12.9259 3.60158 11.847L12.4087 3.03989C13.1279 2.3206 14.1035 1.9165 15.1207 1.9165C16.138 1.9165 17.1135 2.3206 17.8328 3.03989C18.5521 3.75917 18.9562 4.73474 18.9562 5.75197C18.9562 6.7692 18.5521 7.74476 17.8328 8.46405L9.01616 17.2711C8.83808 17.4492 8.62667 17.5905 8.394 17.6868C8.16133 17.7832 7.91196 17.8328 7.66012 17.8328C7.40828 17.8328 7.1589 17.7832 6.92623 17.6868C6.69356 17.5905 6.48215 17.4492 6.30408 17.2711C6.126 17.0931 5.98474 16.8816 5.88836 16.649C5.79199 16.4163 5.74239 16.1669 5.74239 15.9151C5.74239 15.6633 5.79199 15.4139 5.88836 15.1812C5.98474 14.9485 6.126 14.7371 6.30408 14.5591L14.4403 6.43239" stroke="#454545" stroke-width="1.5" stroke-linecap="round" stroke-linejoin="round"/>
</svg>
