<svg width="23" height="26" viewBox="0 0 23 26" fill="none" xmlns="http://www.w3.org/2000/svg">
<g clip-path="url(#clip0_1_3462)">
<path d="M11.6881 7.24247C8.4787 7.24247 5.88999 9.79073 5.88999 12.95C5.88999 16.1092 8.4787 18.6575 11.6881 18.6575C14.8975 18.6575 17.4862 16.1092 17.4862 12.95C17.4862 9.79073 14.8975 7.24247 11.6881 7.24247ZM11.6881 16.6606C9.6141 16.6606 7.91857 14.9965 7.91857 12.95C7.91857 10.9034 9.60906 9.23935 11.6881 9.23935C13.7671 9.23935 15.4576 10.9034 15.4576 12.95C15.4576 14.9965 13.7621 16.6606 11.6881 16.6606ZM19.0758 7.009C19.0758 7.74914 18.4702 8.34026 17.7234 8.34026C16.9715 8.34026 16.371 7.74417 16.371 7.009C16.371 6.27383 16.9765 5.67775 17.7234 5.67775C18.4702 5.67775 19.0758 6.27383 19.0758 7.009ZM22.9159 8.36013C22.8302 6.57684 22.4164 4.99722 21.0892 3.69576C19.7671 2.39431 18.1624 1.98698 16.3508 1.89757C14.4837 1.79326 8.88745 1.79326 7.02035 1.89757C5.2138 1.98202 3.6091 2.38934 2.28194 3.6908C0.954787 4.99225 0.546042 6.57187 0.45521 8.35516C0.34924 10.1931 0.34924 15.7019 0.45521 17.5398C0.540996 19.3231 0.954787 20.9028 2.28194 22.2042C3.6091 23.5057 5.20875 23.913 7.02035 24.0024C8.88745 24.1067 14.4837 24.1067 16.3508 24.0024C18.1624 23.918 19.7671 23.5106 21.0892 22.2042C22.4113 20.9028 22.8251 19.3231 22.9159 17.5398C23.0219 15.7019 23.0219 10.1981 22.9159 8.36013ZM20.5039 19.5119C20.1102 20.4855 19.3483 21.2356 18.3542 21.628C16.8655 22.2092 13.3332 22.0751 11.6881 22.0751C10.043 22.0751 6.50563 22.2042 5.02204 21.628C4.03298 21.2405 3.271 20.4905 2.87235 19.5119C2.28194 18.0465 2.41819 14.5693 2.41819 12.95C2.41819 11.3306 2.28699 7.84849 2.87235 6.38808C3.26596 5.41447 4.02794 4.6644 5.02204 4.27198C6.51068 3.69079 10.043 3.82491 11.6881 3.82491C13.3332 3.82491 16.8706 3.69576 18.3542 4.27198C19.3432 4.65943 20.1052 5.40951 20.5039 6.38808C21.0943 7.85346 20.958 11.3306 20.958 12.95C20.958 14.5693 21.0943 18.0515 20.5039 19.5119Z" fill="#484848"/>
</g>
<defs>
<clipPath id="clip0_1_3462">
<rect width="22.6071" height="25.433" fill="white" transform="translate(0.379395 0.238281)"/>
</clipPath>
</defs>
</svg>
