<svg width="47" height="47" viewBox="0 0 47 47" fill="none" xmlns="http://www.w3.org/2000/svg">
<path d="M32.3125 4.40625V10.2812C29.5982 10.2812 27.0059 10.7689 24.5781 11.6178L23.804 9.93169L25.1288 9.33978L23.9362 6.65491L18.5723 9.04163L19.765 11.7265L21.1192 11.1243L21.8712 12.7488C20.2761 13.5505 18.7767 14.53 17.4017 15.6686L16.2473 14.4408L17.3151 13.4596L15.3308 11.2918L11.0039 15.2677L12.9896 17.4355L14.0794 16.4309L15.2618 17.6764C13.8502 19.1733 12.6423 20.8499 11.6692 22.6628L10.08 21.877L10.741 20.5801L8.12366 19.248L5.46228 24.487L8.07812 25.8177L8.74934 24.4929L10.4311 25.3301C9.56086 27.5645 9.03972 29.9195 8.88594 32.3125H5.875V41.125H41.125V4.40625H32.3125ZM35.25 7.34375H38.1875V32.3125H11.8234C12.5769 21.6303 21.4364 13.2188 32.3125 13.2188H35.25V7.34375ZM26.4375 17.556C25.7901 17.5555 25.1606 17.7689 24.6469 18.1629C24.1332 18.5568 23.7639 19.1094 23.5965 19.7348C23.4291 20.3602 23.4728 21.0234 23.7209 21.6214C23.9691 22.2193 24.4077 22.7187 24.9688 23.0417V29.375H32.3125V26.4375H27.9062V23.0359C28.467 22.7134 28.9055 22.2146 29.1536 21.6171C29.4016 21.0196 29.4452 20.3569 29.2777 19.7321C29.1102 19.1072 28.7409 18.5553 28.2273 18.162C27.7136 17.7687 27.0844 17.5562 26.4375 17.5574V17.556ZM8.8125 35.25H38.1875V38.1875H8.8125V35.25Z" fill="#F1487F"/>
</svg>
