<svg width="24" height="24" viewBox="0 0 24 24" fill="none" xmlns="http://www.w3.org/2000/svg">
<path d="M7.69211 11.8969L9.10211 12.3669C10.0341 12.6769 10.4991 12.8329 10.8331 13.1669C11.1671 13.5009 11.3231 13.9669 11.6331 14.8969L12.1031 16.3069C12.8871 18.6609 13.2791 19.8369 14.0001 19.8369C14.7201 19.8369 15.1131 18.6609 15.8971 16.3069L18.7351 7.7949C19.2871 6.1389 19.5631 5.3109 19.1261 4.8739C18.6891 4.4369 17.8611 4.7129 16.2061 5.2639L7.69111 8.1039C5.34011 8.8869 4.16211 9.2789 4.16211 9.9999C4.16211 10.7199 5.33911 11.1129 7.69211 11.8969Z" fill="white"/>
<path d="M7.69211 11.8969L9.10211 12.3669C10.0341 12.6769 10.4991 12.8329 10.8331 13.1669C11.1671 13.5009 11.3231 13.9669 11.6331 14.8969L12.1031 16.3069C12.8871 18.6609 13.2791 19.8369 14.0001 19.8369C14.7201 19.8369 15.1131 18.6609 15.8971 16.3069L18.7351 7.7949C19.2871 6.1389 19.5631 5.3109 19.1261 4.8739C18.6891 4.4369 17.8611 4.7129 16.2061 5.2639L7.69111 8.1039C5.34011 8.8869 4.16211 9.2789 4.16211 9.9999C4.16211 10.7199 5.33911 11.1129 7.69211 11.8969Z" fill="white"/>
<path d="M9.5259 13.8418L7.4639 13.1548C7.31961 13.1067 7.16625 13.0922 7.01549 13.1123C6.86473 13.1324 6.72054 13.1866 6.5939 13.2708L5.5039 13.9968C5.37487 14.0828 5.2736 14.2044 5.2124 14.3469C5.15121 14.4893 5.13273 14.6465 5.15922 14.7993C5.1857 14.952 5.25601 15.0938 5.36159 15.2074C5.46716 15.3209 5.60346 15.4013 5.7539 15.4388L7.7089 15.9268C7.79687 15.9488 7.87722 15.9943 7.94134 16.0584C8.00546 16.1225 8.05093 16.2029 8.0729 16.2908L8.5609 18.2458C8.59841 18.3963 8.67883 18.5326 8.79238 18.6381C8.90592 18.7437 9.0477 18.814 9.20047 18.8405C9.35323 18.867 9.5104 18.8485 9.65286 18.7873C9.79532 18.7261 9.91693 18.6249 10.0029 18.4958L10.7289 17.4058C10.8131 17.2792 10.8673 17.135 10.8874 16.9842C10.9075 16.8335 10.893 16.6801 10.8449 16.5358L10.1579 14.4738C10.1088 14.3267 10.0261 14.193 9.91643 14.0833C9.80674 13.9736 9.67304 13.8909 9.5259 13.8418Z" fill="#F9F9F9"/>
</svg>
