<svg width="36" height="36" viewBox="0 0 36 36" fill="none" xmlns="http://www.w3.org/2000/svg">
<path d="M4.15506 15.6347L10.5571 4.47168L16.9621 15.6347H4.15506ZM10.5856 30.7802C9.10856 30.7802 7.85956 30.2702 6.83856 29.2502C5.81656 28.2282 5.30556 26.9832 5.30556 25.5152C5.30556 24.0232 5.81656 22.7682 6.83856 21.7502C7.85856 20.7322 9.10756 20.2232 10.5856 20.2232C12.0626 20.2232 13.3116 20.7332 14.3326 21.7532C15.3526 22.7752 15.8626 24.0247 15.8626 25.5017C15.8626 26.9787 15.3526 28.2277 14.3326 29.2487C13.3126 30.2697 12.0626 30.7802 10.5856 30.7802ZM10.5856 29.2802C11.6406 29.2802 12.5341 28.9147 13.2661 28.1837C13.9981 27.4517 14.3641 26.5577 14.3641 25.5017C14.3641 24.4457 13.9981 23.5517 13.2661 22.8197C12.5341 22.0887 11.6406 21.7232 10.5856 21.7232C9.52956 21.7232 8.63556 22.0892 7.90356 22.8212C7.17156 23.5532 6.80606 24.4462 6.80706 25.5002C6.80706 26.5562 7.17306 27.4502 7.90506 28.1822C8.63706 28.9142 9.53106 29.2797 10.5871 29.2787L10.5856 29.2802ZM6.74406 14.1347H14.4001L10.5571 7.51518L6.74406 14.1347ZM20.2801 30.7802V20.2232H30.8386V30.7802H20.2801ZM21.7801 29.2802H29.3386V21.7232H21.7801V29.2802ZM25.5601 15.6362C24.6341 14.8982 23.7861 14.2127 23.0161 13.5797C22.2461 12.9467 21.5831 12.3322 21.0271 11.7362C20.4721 11.1402 20.0406 10.5477 19.7326 9.95868C19.4246 9.37068 19.2706 8.75468 19.2706 8.11068C19.2706 7.21668 19.5636 6.47818 20.1496 5.89518C20.7346 5.31218 21.4801 5.02068 22.3861 5.02068C22.9841 5.02068 23.5431 5.16718 24.0631 5.46018C24.5831 5.75418 25.0816 6.19518 25.5586 6.78318C26.0356 6.21318 26.5441 5.77718 27.0841 5.47518C27.6241 5.17218 28.1831 5.02068 28.7611 5.02068C29.6411 5.02068 30.3756 5.32768 30.9646 5.94168C31.5536 6.55568 31.8481 7.30718 31.8481 8.19618C31.8481 8.82118 31.6941 9.42318 31.3861 10.0022C31.0781 10.5822 30.6466 11.1652 30.0916 11.7512C29.5356 12.3372 28.8726 12.9467 28.1026 13.5797C27.3326 14.2127 26.4846 14.8982 25.5586 15.6362H25.5601ZM25.5601 13.6892C27.3021 12.3432 28.5356 11.2517 29.2606 10.4147C29.9856 9.57868 30.3481 8.83568 30.3481 8.18568C30.3481 7.70568 30.1966 7.30868 29.8936 6.99468C29.5906 6.67868 29.2091 6.52068 28.7491 6.52068C28.4261 6.52068 28.1111 6.61818 27.8041 6.81318C27.4971 7.00818 27.0731 7.37718 26.5321 7.92018L25.5586 8.87418L24.5866 7.92018C24.0256 7.35818 23.5976 6.98468 23.3026 6.79968C23.0066 6.61368 22.6956 6.52068 22.3696 6.52068C21.8896 6.52068 21.5031 6.66418 21.2101 6.95118C20.9171 7.23718 20.7706 7.62918 20.7706 8.12718C20.7706 8.81618 21.1331 9.57868 21.8581 10.4147C22.5831 11.2517 23.8166 12.3432 25.5586 13.6892H25.5601Z" fill="black"/>
</svg>
