<svg width="23" height="22" viewBox="0 0 23 22" fill="none" xmlns="http://www.w3.org/2000/svg">
<g clip-path="url(#clip0_1_3466)">
<path d="M5.4072 21.8455V7.54587H0.560374L0.560374 21.8455H5.4072ZM2.98441 5.59232C4.67458 5.59232 5.72664 4.49427 5.72664 3.12208C5.69515 1.71894 4.67465 0.651367 3.01649 0.651367C1.35858 0.651367 0.274414 1.71896 0.274414 3.12208C0.274414 4.49433 1.32621 5.59232 2.95277 5.59232H2.98426H2.98441ZM8.0899 21.8455H12.9367V13.8599C12.9367 13.4325 12.9682 13.0056 13.0962 12.7001C13.4466 11.8462 14.2441 10.9618 15.583 10.9618C17.3368 10.9618 18.0385 12.2731 18.0385 14.1954V21.8454H22.885V13.6461C22.885 9.25384 20.4938 7.21015 17.3049 7.21015C14.6903 7.21015 13.5422 8.64334 12.9045 9.61948H12.9368V7.54557H8.09001C8.15361 8.88737 8.09001 21.8452 8.09001 21.8452L8.0899 21.8455Z" fill="#484848"/>
</g>
<defs>
<clipPath id="clip0_1_3466">
<rect width="22.6071" height="21.1942" fill="white" transform="translate(0.274414 0.651367)"/>
</clipPath>
</defs>
</svg>
