<svg width="49" height="49" viewBox="0 0 49 49" fill="none" xmlns="http://www.w3.org/2000/svg">
<path d="M21.6416 32.6667C21.6416 29.9104 21.8886 27.928 22.3827 26.7193C22.8768 25.5106 23.9228 24.1924 25.5207 22.7646C26.9159 21.5396 27.9796 20.4759 28.7118 19.5735C29.4441 18.671 29.8096 17.642 29.8082 16.4865C29.8082 15.0913 29.3407 13.9344 28.4056 13.0156C27.4705 12.0969 26.1686 11.6375 24.4999 11.6375C22.7645 11.6375 21.4456 12.1649 20.5431 13.2198C19.6407 14.2747 19.0037 15.3465 18.6321 16.4354L13.3728 14.1896C14.0874 12.0118 15.3975 10.1233 17.303 8.52396C19.2086 6.92465 21.6075 6.125 24.4999 6.125C28.0728 6.125 30.8209 7.12065 32.7441 9.11196C34.6674 11.1033 35.6283 13.4934 35.627 16.2823C35.627 17.9837 35.2615 19.4387 34.5306 20.6474C33.7997 21.856 32.6509 23.2253 31.0843 24.7552C29.4169 26.3545 28.4049 27.5713 28.0483 28.4057C27.6917 29.2401 27.5127 30.6604 27.5113 32.6667H21.6416ZM24.4999 44.9167C23.377 44.9167 22.416 44.5165 21.6171 43.7162C20.8181 42.9158 20.4179 41.9549 20.4166 40.8333C20.4166 39.7104 20.8167 38.7488 21.6171 37.9485C22.4174 37.1481 23.3783 36.7486 24.4999 36.75C25.6228 36.75 26.5844 37.1502 27.3848 37.9505C28.1851 38.7508 28.5846 39.7118 28.5832 40.8333C28.5832 41.9563 28.1831 42.9179 27.3827 43.7182C26.5824 44.5185 25.6214 44.918 24.4999 44.9167Z" fill="#7A7A7A"/>
</svg>
