<svg width="17" height="29" viewBox="0 0 17 29" fill="none" xmlns="http://www.w3.org/2000/svg">
<g id="Group">
<path id="Vector" d="M13.4582 1.6377H3.28431C2.03566 1.6377 1.02344 2.64992 1.02344 3.89856V25.3768C1.02344 26.6255 2.03566 27.6377 3.28431 27.6377H13.4582C14.7069 27.6377 15.7191 26.6255 15.7191 25.3768V3.89856C15.7191 2.64992 14.7069 1.6377 13.4582 1.6377Z" stroke="#A0A3BD" stroke-width="1.6" stroke-linecap="round" stroke-linejoin="round"/>
<path id="Vector_2" d="M12.0744 1.6377V3.11892C12.0744 3.51177 11.9183 3.88853 11.6405 4.16631C11.3627 4.4441 10.986 4.60015 10.5931 4.60015H6.14944C5.7566 4.60015 5.37984 4.4441 5.10206 4.16631C4.82427 3.88853 4.66821 3.51177 4.66821 3.11892V1.6377" stroke="#A0A3BD" stroke-width="1.6" stroke-linecap="round" stroke-linejoin="round"/>
</g>
</svg>
