<svg width="29" height="34" viewBox="0 0 29 34" fill="none" xmlns="http://www.w3.org/2000/svg">
<path d="M14.5001 28.9C16.1017 28.9 17.4001 27.3777 17.4001 25.5C17.4001 23.6222 16.1017 22.1 14.5001 22.1C12.8985 22.1 11.6001 23.6222 11.6001 25.5C11.6001 27.3777 12.8985 28.9 14.5001 28.9Z" fill="black"/>
<path d="M14.5001 20.4C16.1017 20.4 17.4001 18.8777 17.4001 17C17.4001 15.1222 16.1017 13.6 14.5001 13.6C12.8985 13.6 11.6001 15.1222 11.6001 17C11.6001 18.8777 12.8985 20.4 14.5001 20.4Z" fill="black"/>
<path d="M14.5001 11.9C16.1017 11.9 17.4001 10.3777 17.4001 8.49998C17.4001 6.62221 16.1017 5.09998 14.5001 5.09998C12.8985 5.09998 11.6001 6.62221 11.6001 8.49998C11.6001 10.3777 12.8985 11.9 14.5001 11.9Z" fill="black"/>
</svg>
