<svg width="72" height="72" viewBox="0 0 72 72" fill="none" xmlns="http://www.w3.org/2000/svg">
<path d="M28.2297 43.7702C29.249 44.792 30.4601 45.6023 31.7936 46.1546C33.127 46.7068 34.5564 46.9901 35.9997 46.9882C42.0687 46.9882 46.9877 42.0682 46.9877 36.0002C46.9877 29.9322 42.0677 25.0122 35.9997 25.0122C29.9317 25.0122 25.0117 29.9322 25.0117 36.0002V38.1392" stroke="black" stroke-linecap="round" stroke-linejoin="round"/>
<path d="M23.0635 36.1901L25.0125 38.1391L26.9605 36.1901M36.0005 28.4541V36.0001L39.4575 39.4571" stroke="black" stroke-linecap="round" stroke-linejoin="round"/>
<path d="M36 57.5C47.8741 57.5 57.5 47.8741 57.5 36C57.5 24.1259 47.8741 14.5 36 14.5C24.1259 14.5 14.5 24.1259 14.5 36C14.5 47.8741 24.1259 57.5 36 57.5Z" stroke="black" stroke-linecap="round" stroke-linejoin="round"/>
</svg>
