<svg width="24" height="24" viewBox="0 0 24 24" fill="none" xmlns="http://www.w3.org/2000/svg">
<path d="M12.057 1.25H11.943C9.634 1.25 7.825 1.25 6.413 1.44C4.969 1.634 3.829 2.04 2.934 2.934C2.039 3.829 1.634 4.969 1.44 6.414C1.25 7.825 1.25 9.634 1.25 11.943V12.057C1.25 14.366 1.25 16.175 1.44 17.587C1.634 19.031 2.04 20.171 2.934 21.066C3.763 21.894 4.802 22.304 6.101 22.514C7.378 22.721 8.984 22.746 10.999 22.749C11.1979 22.7493 11.3888 22.6705 11.5296 22.53C11.6705 22.3896 11.7497 22.1989 11.75 22C11.7503 21.8011 11.6715 21.6102 11.531 21.4694C11.3906 21.3285 11.1999 21.2493 11.001 21.249C8.961 21.246 7.478 21.218 6.341 21.033C5.224 20.853 4.523 20.533 3.995 20.005C3.425 19.435 3.098 18.665 2.926 17.386C2.752 16.086 2.75 14.378 2.75 12C2.75 9.622 2.752 7.914 2.927 6.614C3.098 5.335 3.425 4.564 3.995 3.994C4.565 3.425 5.335 3.098 6.614 2.926C7.914 2.752 9.622 2.75 12 2.75C14.378 2.75 16.087 2.752 17.387 2.926C18.665 3.098 19.436 3.426 20.005 3.995C20.534 4.523 20.853 5.225 21.033 6.34C21.218 7.478 21.246 8.961 21.25 11.001C21.2501 11.1999 21.3293 11.3906 21.47 11.5312C21.6108 11.6717 21.8016 11.7506 22.0005 11.7505C22.1994 11.7504 22.3901 11.6712 22.5307 11.5305C22.6712 11.3897 22.7501 11.1989 22.75 11C22.746 8.984 22.72 7.378 22.514 6.102C22.304 4.802 21.894 3.764 21.066 2.935C20.171 2.04 19.031 1.635 17.586 1.441C16.175 1.251 14.366 1.251 12.057 1.251V1.25Z" fill="black"/>
<path d="M11.5001 7C11.5001 6.80109 11.4211 6.61032 11.2804 6.46967C11.1398 6.32902 10.949 6.25 10.7501 6.25H7.00009C6.80118 6.25 6.61041 6.32902 6.46976 6.46967C6.32911 6.61032 6.25009 6.80109 6.25009 7V10.75C6.25009 10.9489 6.32911 11.1397 6.46976 11.2803C6.61041 11.421 6.80118 11.5 7.00009 11.5C7.199 11.5 7.38977 11.421 7.53042 11.2803C7.67107 11.1397 7.75009 10.9489 7.75009 10.75V8.81L11.4701 12.53C11.5388 12.6037 11.6216 12.6628 11.7136 12.7038C11.8056 12.7448 11.9049 12.7668 12.0056 12.7686C12.1063 12.7704 12.2063 12.7518 12.2997 12.7141C12.3931 12.6764 12.4779 12.6203 12.5491 12.549C12.6203 12.4778 12.6765 12.393 12.7142 12.2996C12.7519 12.2062 12.7705 12.1062 12.7687 12.0055C12.7669 11.9048 12.7449 11.8055 12.7039 11.7135C12.6629 11.6215 12.6038 11.5387 12.5301 11.47L8.81009 7.75H10.7501C10.949 7.75 11.1398 7.67098 11.2804 7.53033C11.4211 7.38968 11.5001 7.19891 11.5001 7Z" fill="black"/>
<path fill-rule="evenodd" clip-rule="evenodd" d="M18.052 13.25C18.95 13.25 19.7 13.25 20.294 13.33C20.922 13.414 21.489 13.6 21.944 14.056C22.4 14.511 22.586 15.078 22.67 15.706C22.75 16.3 22.75 17.049 22.75 17.948V18.052C22.75 18.951 22.75 19.7 22.67 20.294C22.586 20.922 22.4 21.489 21.945 21.944C21.489 22.4 20.922 22.586 20.295 22.67C19.7 22.75 18.95 22.75 18.052 22.75H17.948C17.05 22.75 16.3 22.75 15.706 22.67C15.078 22.586 14.511 22.4 14.056 21.944C13.6 21.489 13.414 20.922 13.33 20.294C13.25 19.7 13.25 18.951 13.25 18.052V17.948C13.25 17.049 13.25 16.3 13.33 15.706C13.414 15.078 13.6 14.511 14.055 14.056C14.511 13.6 15.078 13.414 15.705 13.33C16.3 13.25 17.05 13.25 17.948 13.25H18.052ZM20.884 15.116C20.754 14.986 20.556 14.879 20.094 14.816C19.612 14.752 18.964 14.75 18 14.75C17.036 14.75 16.388 14.752 15.905 14.816C15.444 14.879 15.246 14.986 15.116 15.116C14.986 15.246 14.879 15.444 14.816 15.906C14.752 16.388 14.75 17.036 14.75 18C14.75 18.964 14.752 19.612 14.817 20.095C14.879 20.556 14.986 20.754 15.117 20.884C15.247 21.014 15.444 21.121 15.905 21.184C16.388 21.248 17.036 21.25 18 21.25C18.964 21.25 19.612 21.248 20.095 21.183C20.556 21.121 20.754 21.014 20.884 20.883C21.014 20.753 21.121 20.556 21.184 20.095C21.248 19.612 21.25 18.964 21.25 18C21.25 17.036 21.248 16.388 21.183 15.905C21.121 15.444 21.014 15.246 20.883 15.116H20.884Z" fill="black"/>
</svg>
