<svg width="67" height="55" viewBox="0 0 67 55" fill="none" xmlns="http://www.w3.org/2000/svg">
<path d="M8.04283 17.0546L19.9577 0L31.8781 17.0546H8.04283ZM20.0107 40.1935C17.2618 40.1935 14.9373 39.4144 13.0371 37.856C11.1351 36.2947 10.184 34.3926 10.184 32.1498C10.184 29.8703 11.1351 27.953 13.0371 26.3977C14.9355 24.8424 17.26 24.0648 20.0107 24.0648C22.7596 24.0648 25.0841 24.844 26.9843 26.4023C28.8826 27.9637 29.8318 29.8726 29.8318 32.1292C29.8318 34.3857 28.8826 36.2939 26.9843 37.8538C25.086 39.4136 22.7596 40.1935 20.0107 40.1935ZM20.0107 37.9019C21.9742 37.9019 23.6371 37.3435 24.9994 36.2267C26.3617 35.1083 27.0429 33.7425 27.0429 32.1292C27.0429 30.5158 26.3617 29.15 24.9994 28.0317C23.6371 26.9149 21.9742 26.3565 20.0107 26.3565C18.0454 26.3565 16.3815 26.9156 15.0192 28.034C13.6569 29.1523 12.9766 30.5166 12.9785 32.1269C12.9785 33.7402 13.6597 35.106 15.022 36.2244C16.3843 37.3427 18.0482 37.9011 20.0135 37.8996L20.0107 37.9019ZM12.8612 14.7629H27.1099L19.9577 4.64979L12.8612 14.7629ZM38.0533 40.1935V24.0648H57.7038V40.1935H38.0533ZM40.8449 37.9019H54.9121V26.3565H40.8449V37.9019ZM47.8799 17.0569C46.1565 15.9294 44.5783 14.8821 43.1453 13.915C41.7122 12.9479 40.4783 12.0091 39.4435 11.0985C38.4106 10.188 37.6075 9.28278 37.0343 8.38292C36.4611 7.48458 36.1745 6.54347 36.1745 5.55958C36.1745 4.19375 36.7198 3.06549 37.8104 2.17479C38.8991 1.2841 40.2866 0.83875 41.9728 0.83875C43.0857 0.83875 44.1261 1.06257 45.0938 1.51021C46.0616 1.95938 46.9894 2.63312 47.8771 3.53146C48.7649 2.66062 49.7113 1.99451 50.7163 1.53313C51.7213 1.07021 52.7616 0.83875 53.8373 0.83875C55.4751 0.83875 56.8421 1.30778 57.9383 2.24583C59.0345 3.18389 59.5826 4.33201 59.5826 5.69021C59.5826 6.64507 59.296 7.56479 58.7228 8.44938C58.1495 9.33549 57.3465 10.2262 56.3135 11.1215C55.2788 12.0167 54.0449 12.9479 52.6118 13.915C51.1787 14.8821 49.6005 15.9294 47.8771 17.0569H47.8799ZM47.8799 14.0823C51.122 12.0259 53.4177 10.3583 54.767 9.07958C56.1163 7.80236 56.7909 6.66722 56.7909 5.67417C56.7909 4.94083 56.509 4.33431 55.945 3.85458C55.3811 3.37181 54.6711 3.13042 53.815 3.13042C53.2139 3.13042 52.6276 3.27937 52.0563 3.57729C51.4849 3.87521 50.6958 4.43896 49.6889 5.26854L47.8771 6.72604L46.0681 5.26854C45.024 4.40993 44.2275 3.83931 43.6785 3.55667C43.1276 3.2725 42.5488 3.13042 41.942 3.13042C41.0487 3.13042 40.3294 3.34965 39.7841 3.78812C39.2388 4.22507 38.9661 4.82396 38.9661 5.58479C38.9661 6.63743 39.6408 7.80236 40.9901 9.07958C42.3394 10.3583 44.6351 12.0259 47.8771 14.0823H47.8799Z" fill="white"/>
</svg>
