<svg width="37" height="33" viewBox="0 0 37 33" fill="none" xmlns="http://www.w3.org/2000/svg">
<path d="M18.4999 21.3125C21.907 21.3125 24.6666 18.8513 24.6666 15.8125V8.25C24.6666 5.21125 21.907 2.75 18.4999 2.75C15.0928 2.75 12.3333 5.21125 12.3333 8.25V15.8125C12.3333 18.8513 15.0928 21.3125 18.4999 21.3125Z" stroke="#67707E" stroke-width="1.5" stroke-linecap="round" stroke-linejoin="round"/>
<path d="M6.7063 13.2687V15.6062C6.7063 21.4087 11.9942 26.125 18.5 26.125C25.0059 26.125 30.2938 21.4087 30.2938 15.6062V13.2687" stroke="#67707E" stroke-width="1.5" stroke-linecap="round" stroke-linejoin="round"/>
<path d="M16.3572 8.84126C17.7447 8.38751 19.2555 8.38751 20.643 8.84126" stroke="#67707E" stroke-width="1.5" stroke-linecap="round" stroke-linejoin="round"/>
<path d="M17.2666 11.7563C18.0837 11.5638 18.9316 11.5638 19.7487 11.7563" stroke="#67707E" stroke-width="1.5" stroke-linecap="round" stroke-linejoin="round"/>
<path d="M18.5 26.125V30.25" stroke="#67707E" stroke-width="1.5" stroke-linecap="round" stroke-linejoin="round"/>
</svg>
