<svg width="42" height="40" viewBox="0 0 42 40" fill="none" xmlns="http://www.w3.org/2000/svg">
<path d="M29.8428 6.92329L17.5029 4.80322C12.1429 3.88233 8.42046 6.40102 7.53638 11.5468L5.50348 23.3793C4.61698 28.5392 7.28533 32.1558 12.6454 33.0767L24.9705 35.1943C30.3305 36.1152 34.0529 33.5965 34.937 28.4507L36.9723 16.6041C37.8711 11.4608 35.2028 7.84418 29.8428 6.92329ZM17.4552 11.1697C18.9719 11.4303 20.0195 12.8328 19.7669 14.303C19.5143 15.7732 18.0734 16.7482 16.5419 16.4851C15.0105 16.222 13.9825 14.7937 14.2326 13.3376C14.4828 11.8815 15.9385 10.9091 17.4552 11.1697ZM19.5245 30.0088C15.5634 29.3283 12.8704 25.6783 13.5238 21.8755C13.6938 20.8859 14.674 20.2102 15.7048 20.3873L26.307 22.2088C27.3378 22.3859 28.0387 23.3359 27.8662 24.3396C27.2423 28.1475 23.4856 30.6894 19.5245 30.0088ZM26.8545 18.2278C25.3378 17.9672 24.2902 16.5647 24.5428 15.0944C24.7954 13.6242 26.2363 12.6492 27.7678 12.9124C29.2992 13.1755 30.3321 14.5755 30.0795 16.0457C29.8269 17.5159 28.3713 18.4884 26.8545 18.2278Z" fill="white"/>
</svg>
