<svg width="26" height="20" viewBox="0 0 26 20" fill="none" xmlns="http://www.w3.org/2000/svg">
<g clip-path="url(#clip0_1_3470)">
<path d="M25.7762 2.47354C24.8239 2.87548 23.8137 3.13932 22.7793 3.25627C23.8567 2.64107 24.684 1.66687 25.0736 0.506117C24.0493 1.08515 22.9287 1.49312 21.7602 1.71239C20.8084 0.746331 19.4524 0.142578 17.9515 0.142578C15.0699 0.142578 12.7335 2.36829 12.7335 5.11343C12.7335 5.50309 12.7797 5.88244 12.8686 6.24636C8.53208 6.03898 4.68733 4.06001 2.11373 1.05251C1.66468 1.78669 1.40737 2.64069 1.40737 3.55157C1.40737 5.27623 2.32862 6.79767 3.72863 7.68915C2.90002 7.66443 2.08964 7.45122 1.36515 7.06732C1.36485 7.08814 1.36485 7.10897 1.36485 7.12988C1.36485 9.53836 3.16344 11.5475 5.55037 12.0042C4.782 12.2033 3.97603 12.2324 3.19404 12.0894C3.85798 14.0643 5.78503 15.5014 8.06823 15.5416C6.28246 16.8748 4.03253 17.6696 1.58799 17.6696C1.16675 17.6696 0.751481 17.646 0.343262 17.6001C2.6524 19.0105 5.39509 19.8335 8.34174 19.8335C17.9394 19.8335 23.1876 12.2588 23.1876 5.68993C23.1876 5.47432 23.1827 5.25995 23.1725 5.0468C24.1941 4.34328 25.0758 3.47189 25.7762 2.47354Z" fill="#484848"/>
</g>
<defs>
<clipPath id="clip0_1_3470">
<rect width="25.433" height="19.7812" fill="white" transform="translate(0.343262 0.0644531)"/>
</clipPath>
</defs>
</svg>
