<svg width="48" height="48" viewBox="0 0 48 48" fill="none" xmlns="http://www.w3.org/2000/svg">
<circle cx="24" cy="24" r="24" fill="white"/>
<path d="M24 27.5C26.21 27.5 28 25.71 28 23.5V18C28 15.79 26.21 14 24 14C21.79 14 20 15.79 20 18V23.5C20 25.71 21.79 27.5 24 27.5Z" stroke="#67707E" stroke-width="1.5" stroke-linecap="round" stroke-linejoin="round"/>
<path d="M16.3501 21.6499V23.3499C16.3501 27.5699 19.7801 30.9999 24.0001 30.9999C28.2201 30.9999 31.6501 27.5699 31.6501 23.3499V21.6499" stroke="#67707E" stroke-width="1.5" stroke-linecap="round" stroke-linejoin="round"/>
<path d="M22.6101 18.4301C23.5101 18.1001 24.4901 18.1001 25.3901 18.4301" stroke="#67707E" stroke-width="1.5" stroke-linecap="round" stroke-linejoin="round"/>
<path d="M23.2 20.5498C23.73 20.4098 24.28 20.4098 24.81 20.5498" stroke="#67707E" stroke-width="1.5" stroke-linecap="round" stroke-linejoin="round"/>
<path d="M24 31V34" stroke="#67707E" stroke-width="1.5" stroke-linecap="round" stroke-linejoin="round"/>
</svg>
