<svg width="100" height="100" viewBox="0 0 100 100" fill="none" xmlns="http://www.w3.org/2000/svg">
<g id="bx:error">
<path id="Vector" d="M45.8377 41.6665H54.171V62.4998H45.8377V41.6665ZM45.8335 66.6665H54.1668V74.9998H45.8335V66.6665Z" fill="white"/>
<path id="Vector_2" d="M57.3666 17.5002C55.9166 14.771 53.0916 13.0752 50 13.0752C46.9083 13.0752 44.0833 14.771 42.6333 17.5044L12.0583 75.2669C11.3798 76.5353 11.0437 77.9587 11.0832 79.3967C11.1226 80.8347 11.5363 82.2375 12.2833 83.4669C13.0195 84.7018 14.0651 85.7233 15.3168 86.4307C16.5685 87.138 17.9831 87.5066 19.4208 87.5002H80.5791C83.5291 87.5002 86.2 85.9919 87.7208 83.4669C88.4666 82.2371 88.8795 80.8344 88.919 79.3966C88.9584 77.9589 88.623 76.5357 87.9458 75.2669L57.3666 17.5002ZM19.4208 79.1669L50 21.4044L80.6 79.1669H19.4208Z" fill="white"/>
</g>
</svg>
