<svg width="47" height="47" viewBox="0 0 47 47" fill="none" xmlns="http://www.w3.org/2000/svg">
<path d="M32.3126 4.40625V10.2812C29.5984 10.2812 27.006 10.7689 24.5782 11.6178L23.8042 9.93169L25.129 9.33978L23.9363 6.65491L18.5725 9.04163L19.7651 11.7265L21.1193 11.1243L21.8713 12.7488C20.2762 13.5505 18.7769 14.53 17.4019 15.6686L16.2474 14.4408L17.3152 13.4596L15.3309 11.2918L11.004 15.2677L12.9897 17.4355L14.0796 16.4309L15.2619 17.6764C13.8503 19.1733 12.6424 20.8499 11.6693 22.6628L10.0802 21.877L10.7411 20.5801L8.12378 19.248L5.4624 24.487L8.07825 25.8177L8.74946 24.4929L10.4312 25.3301C9.56098 27.5645 9.03984 29.9195 8.88606 32.3125H5.87512V41.125H41.1251V4.40625H32.3126ZM35.2501 7.34375H38.1876V32.3125H11.8236C12.577 21.6303 21.4365 13.2188 32.3126 13.2188H35.2501V7.34375ZM26.4376 17.556C25.7902 17.5555 25.1608 17.7689 24.647 18.1629C24.1333 18.5568 23.7641 19.1094 23.5966 19.7348C23.4292 20.3602 23.4729 21.0234 23.7211 21.6214C23.9692 22.2193 24.4078 22.7187 24.9689 23.0417V29.375H32.3126V26.4375H27.9064V23.0359C28.4672 22.7134 28.9057 22.2146 29.1537 21.6171C29.4017 21.0196 29.4454 20.3569 29.2779 19.7321C29.1103 19.1072 28.741 18.5553 28.2274 18.162C27.7137 17.7687 27.0845 17.5562 26.4376 17.5574V17.556ZM8.81262 35.25H38.1876V38.1875H8.81262V35.25Z" fill="#333333"/>
</svg>
